<svg xmlns="http://www.w3.org/2000/svg" version="1.1" xmlns:xlink="http://www.w3.org/1999/xlink" xmlns:svgjs="http://svgjs.dev/svgjs" width="1500" height="1500" viewBox="0 0 1500 1500"><rect width="1500" height="1500" fill="#02704b"></rect><g transform="matrix(0.6666666666666666,0,0,0.6666666666666666,249.39393939393938,435.99032258064517)"><svg viewBox="0 0 396 248" data-background-color="#02704b" preserveAspectRatio="xMidYMid meet" height="939" width="1500" xmlns="http://www.w3.org/2000/svg" xmlns:xlink="http://www.w3.org/1999/xlink"><g id="tight-bounds" transform="matrix(1,0,0,1,0.2400000000000091,0.4000000000000057)"><svg viewBox="0 0 395.52 247.2" height="247.2" width="395.52"><g><svg></svg></g><g><svg viewBox="0 0 395.52 247.2" height="247.2" width="395.52"><g transform="matrix(1,0,0,1,159.04700966542748,47.215199999999996)"><svg viewBox="0 0 77.42598066914499 152.7696" height="152.7696" width="77.42598066914499"><g><svg viewBox="0 0 77.42598066914499 152.7696" height="152.7696" width="77.42598066914499"><g><svg viewBox="0 0 77.42598066914499 152.7696" height="152.7696" width="77.42598066914499"><g><svg viewBox="0 0 77.42598066914499 152.7696" height="152.7696" width="77.42598066914499"><g id="textblocktransform"><svg viewBox="0 0 77.42598066914499 152.7696" height="152.7696" width="77.42598066914499" id="textblock"><g><svg viewBox="0 0 77.42598066914499 152.7696" height="152.7696" width="77.42598066914499"><g transform="matrix(1,0,0,1,0,0)"><svg width="77.42598066914499" viewBox="1.55 -38.35 20.45 40.349999999999994" height="152.7696" data-palette-color="#eeddc1"><path d="M19.7-14.4L19.7-14.4Q20.7-12.9 21.18-11.18 21.65-9.45 21.65-7.4L21.65-7.4Q21.65-3.25 19-0.63 16.35 2 12.2 2L12.2 2Q7.2 2 4.38-1.68 1.55-5.35 1.55-11.25L1.55-11.25Q2.35-11.65 3.3-11.95 4.25-12.25 5.15-12.3L5.15-12.3Q5.1-6.95 6.93-3.9 8.75-0.85 12.05-0.85L12.05-0.85Q14.55-0.85 16.07-2.53 17.6-4.2 17.6-6.95L17.6-6.95Q17.6-9.6 16.4-11.68 15.2-13.75 11.2-16.7L11.2-16.7Q8.8-18.5 7.7-19.58 6.6-20.65 5.85-21.8L5.85-21.8Q4.85-23.3 4.35-25.05 3.85-26.8 3.85-28.85L3.85-28.85Q3.85-33.2 6.33-35.77 8.8-38.35 12.95-38.35L12.95-38.35Q16.75-38.35 18.88-36.18 21-34 22-28.8L22-28.8Q21.3-28.4 20.48-28.2 19.65-28 18.4-27.95L18.4-27.95Q17.95-31.9 16.65-33.65 15.35-35.4 12.8-35.4L12.8-35.4Q10.45-35.4 9.2-33.85 7.95-32.3 7.95-29.35L7.95-29.35Q7.95-26.65 9.18-24.53 10.4-22.4 14.4-19.4L14.4-19.4Q16.8-17.6 17.88-16.55 18.95-15.5 19.7-14.4Z" opacity="1" transform="matrix(1,0,0,1,0,0)" fill="#eeddc1" class="wordmark-text-0" data-fill-palette-color="primary" id="text-0"></path></svg></g></svg></g></svg></g></svg></g></svg></g></svg></g></svg></g><path d="M54.172 41.215L54.172 0 301.372 0 301.372 247.2 54.172 247.2 54.172 205.985 67.949 205.985 67.949 233.423 287.595 233.423 287.595 13.777 67.949 13.777 67.949 41.215Z" fill="#eeddc1" stroke="transparent" data-fill-palette-color="tertiary"></path></svg></g><defs></defs></svg><rect width="395.52" height="247.2" fill="none" stroke="none" visibility="hidden"></rect></g></svg></g></svg>